<?xml version="1.0" encoding="UTF-8" standalone="no"?><!DOCTYPE svg PUBLIC "-//W3C//DTD SVG 1.1//EN" "http://www.w3.org/Graphics/SVG/1.1/DTD/svg11.dtd"><svg width="100%" height="100%" viewBox="0 0 100 100" version="1.1" xmlns="http://www.w3.org/2000/svg" xmlns:xlink="http://www.w3.org/1999/xlink" xml:space="preserve" style="fill-rule:evenodd;clip-rule:evenodd;stroke-linejoin:round;stroke-miterlimit:1.41421;"><path d="M34.759,63.823c0.783,0 1.418,0.635 1.418,1.418l0,11.341c0,0.783 -0.635,1.418 -1.418,1.418l-11.341,0c-0.783,0 -1.418,-0.635 -1.418,-1.418l0,-11.341c0,-0.783 0.635,-1.418 1.418,-1.418l11.341,0Zm20.912,0c0.782,0 1.418,0.635 1.418,1.418l0,11.341c0,0.783 -0.636,1.418 -1.418,1.418l-11.342,0c-0.782,0 -1.418,-0.635 -1.418,-1.418l0,-11.341c0,-0.783 0.636,-1.418 1.418,-1.418l11.342,0Zm20.911,0c0.783,0 1.418,0.635 1.418,1.418l0,11.341c0,0.783 -0.635,1.418 -1.418,1.418l-11.341,0c-0.783,0 -1.418,-0.635 -1.418,-1.418l0,-11.341c0,-0.783 0.635,-1.418 1.418,-1.418l11.341,0Zm0,-20.912c0.783,0 1.418,0.636 1.418,1.418l0,11.342c0,0.782 -0.635,1.418 -1.418,1.418l-11.341,0c-0.783,0 -1.418,-0.636 -1.418,-1.418l0,-11.342c0,-0.782 0.635,-1.418 1.418,-1.418l11.341,0Zm-20.911,0c0.782,0 1.418,0.636 1.418,1.418l0,11.342c0,0.782 -0.636,1.418 -1.418,1.418l-11.342,0c-0.782,0 -1.418,-0.636 -1.418,-1.418l0,-11.342c0,-0.782 0.636,-1.418 1.418,-1.418l11.342,0Zm-20.912,0c0.783,0 1.418,0.636 1.418,1.418l0,11.342c0,0.782 -0.635,1.418 -1.418,1.418l-11.341,0c-0.783,0 -1.418,-0.636 -1.418,-1.418l0,-11.342c0,-0.782 0.635,-1.418 1.418,-1.418l11.341,0Zm41.823,-20.911c0.783,0 1.418,0.635 1.418,1.418l0,11.341c0,0.783 -0.635,1.418 -1.418,1.418l-11.341,0c-0.783,0 -1.418,-0.635 -1.418,-1.418l0,-11.341c0,-0.783 0.635,-1.418 1.418,-1.418l11.341,0Zm-41.823,0c0.783,0 1.418,0.635 1.418,1.418l0,11.341c0,0.783 -0.635,1.418 -1.418,1.418l-11.341,0c-0.783,0 -1.418,-0.635 -1.418,-1.418l0,-11.341c0,-0.783 0.635,-1.418 1.418,-1.418l11.341,0Zm20.912,0c0.782,0 1.418,0.635 1.418,1.418l0,11.341c0,0.783 -0.636,1.418 -1.418,1.418l-11.342,0c-0.782,0 -1.418,-0.635 -1.418,-1.418l0,-11.341c0,-0.783 0.636,-1.418 1.418,-1.418l11.342,0Z" style="fill:#2b59c3;"/></svg>